<mxfile host="app.diagrams.net" modified="2024-02-19T05:32:35.600Z" agent="Mozilla/5.0 (Macintosh; Intel Mac OS X 10_15_7) AppleWebKit/537.36 (KHTML, like Gecko) Chrome/121.0.0.0 Safari/537.36" etag="pBBSA69QlyixqZPLyjrG" version="23.0.2" type="device">
  <diagram name="第 1 页" id="vyYROAOZdIHMHq-e5eEI">
    <mxGraphModel dx="1380" dy="804" grid="1" gridSize="10" guides="1" tooltips="1" connect="1" arrows="1" fold="1" page="1" pageScale="1" pageWidth="1100" pageHeight="850" math="0" shadow="0">
      <root>
        <mxCell id="0" />
        <mxCell id="1" parent="0" />
        <mxCell id="he7uMG5rwi_iWNvBO78Y-1" value="STORE" style="rounded=0;whiteSpace=wrap;html=1;fillColor=#dae8fc;strokeColor=#6c8ebf;" vertex="1" parent="1">
          <mxGeometry x="40" y="40" width="70" height="30" as="geometry" />
        </mxCell>
        <mxCell id="he7uMG5rwi_iWNvBO78Y-2" value="" style="rounded=0;whiteSpace=wrap;html=1;" vertex="1" parent="1">
          <mxGeometry x="40" y="70" width="420" height="30" as="geometry" />
        </mxCell>
        <mxCell id="he7uMG5rwi_iWNvBO78Y-3" value="&lt;u&gt;storeNum&lt;/u&gt;" style="rounded=0;whiteSpace=wrap;html=1;" vertex="1" parent="1">
          <mxGeometry x="40" y="70" width="70" height="30" as="geometry" />
        </mxCell>
        <mxCell id="he7uMG5rwi_iWNvBO78Y-4" value="storeName" style="rounded=0;whiteSpace=wrap;html=1;" vertex="1" parent="1">
          <mxGeometry x="110" y="70" width="70" height="30" as="geometry" />
        </mxCell>
        <mxCell id="he7uMG5rwi_iWNvBO78Y-5" value="storePhone" style="rounded=0;whiteSpace=wrap;html=1;" vertex="1" parent="1">
          <mxGeometry x="180" y="70" width="70" height="30" as="geometry" />
        </mxCell>
        <mxCell id="he7uMG5rwi_iWNvBO78Y-6" value="storeEmail" style="rounded=0;whiteSpace=wrap;html=1;" vertex="1" parent="1">
          <mxGeometry x="250" y="70" width="70" height="30" as="geometry" />
        </mxCell>
        <mxCell id="he7uMG5rwi_iWNvBO78Y-7" value="storeZip" style="rounded=0;whiteSpace=wrap;html=1;" vertex="1" parent="1">
          <mxGeometry x="320" y="70" width="70" height="30" as="geometry" />
        </mxCell>
        <mxCell id="he7uMG5rwi_iWNvBO78Y-8" value="storeCity" style="rounded=0;whiteSpace=wrap;html=1;" vertex="1" parent="1">
          <mxGeometry x="390" y="70" width="70" height="30" as="geometry" />
        </mxCell>
        <mxCell id="he7uMG5rwi_iWNvBO78Y-10" value="PHARMACIST" style="rounded=0;whiteSpace=wrap;html=1;fillColor=#dae8fc;strokeColor=#6c8ebf;" vertex="1" parent="1">
          <mxGeometry x="40" y="174" width="90" height="30" as="geometry" />
        </mxCell>
        <mxCell id="he7uMG5rwi_iWNvBO78Y-11" value="" style="rounded=0;whiteSpace=wrap;html=1;" vertex="1" parent="1">
          <mxGeometry x="40" y="204" width="300" height="30" as="geometry" />
        </mxCell>
        <mxCell id="he7uMG5rwi_iWNvBO78Y-12" value="&lt;u&gt;pharmId&lt;/u&gt;" style="rounded=0;whiteSpace=wrap;html=1;" vertex="1" parent="1">
          <mxGeometry x="40" y="204" width="70" height="30" as="geometry" />
        </mxCell>
        <mxCell id="he7uMG5rwi_iWNvBO78Y-13" value="pharmName" style="rounded=0;whiteSpace=wrap;html=1;" vertex="1" parent="1">
          <mxGeometry x="110" y="204" width="80" height="30" as="geometry" />
        </mxCell>
        <mxCell id="he7uMG5rwi_iWNvBO78Y-14" value="pharmPhone" style="rounded=0;whiteSpace=wrap;html=1;" vertex="1" parent="1">
          <mxGeometry x="190" y="204" width="80" height="30" as="geometry" />
        </mxCell>
        <mxCell id="he7uMG5rwi_iWNvBO78Y-72" style="edgeStyle=orthogonalEdgeStyle;rounded=0;orthogonalLoop=1;jettySize=auto;html=1;exitX=0.5;exitY=0;exitDx=0;exitDy=0;entryX=0.5;entryY=1;entryDx=0;entryDy=0;" edge="1" parent="1" source="he7uMG5rwi_iWNvBO78Y-16" target="he7uMG5rwi_iWNvBO78Y-3">
          <mxGeometry relative="1" as="geometry">
            <Array as="points">
              <mxPoint x="305" y="160" />
              <mxPoint x="75" y="160" />
            </Array>
          </mxGeometry>
        </mxCell>
        <mxCell id="he7uMG5rwi_iWNvBO78Y-16" value="&lt;u&gt;storeNum&lt;/u&gt;" style="rounded=0;whiteSpace=wrap;html=1;fillColor=#e1d5e7;strokeColor=#9673a6;" vertex="1" parent="1">
          <mxGeometry x="270" y="204" width="70" height="30" as="geometry" />
        </mxCell>
        <mxCell id="he7uMG5rwi_iWNvBO78Y-19" value="FORGER" style="rounded=0;whiteSpace=wrap;html=1;fillColor=#dae8fc;strokeColor=#6c8ebf;" vertex="1" parent="1">
          <mxGeometry x="570" y="40" width="70" height="30" as="geometry" />
        </mxCell>
        <mxCell id="he7uMG5rwi_iWNvBO78Y-20" value="" style="rounded=0;whiteSpace=wrap;html=1;" vertex="1" parent="1">
          <mxGeometry x="570" y="70" width="420" height="30" as="geometry" />
        </mxCell>
        <mxCell id="he7uMG5rwi_iWNvBO78Y-21" value="&lt;u&gt;forgId&lt;/u&gt;" style="rounded=0;whiteSpace=wrap;html=1;" vertex="1" parent="1">
          <mxGeometry x="570" y="70" width="70" height="30" as="geometry" />
        </mxCell>
        <mxCell id="he7uMG5rwi_iWNvBO78Y-22" value="forgName" style="rounded=0;whiteSpace=wrap;html=1;" vertex="1" parent="1">
          <mxGeometry x="640" y="70" width="70" height="30" as="geometry" />
        </mxCell>
        <mxCell id="he7uMG5rwi_iWNvBO78Y-23" value="forgPhone" style="rounded=0;whiteSpace=wrap;html=1;" vertex="1" parent="1">
          <mxGeometry x="710" y="70" width="70" height="30" as="geometry" />
        </mxCell>
        <mxCell id="he7uMG5rwi_iWNvBO78Y-24" value="forgAddress" style="rounded=0;whiteSpace=wrap;html=1;" vertex="1" parent="1">
          <mxGeometry x="780" y="70" width="70" height="30" as="geometry" />
        </mxCell>
        <mxCell id="he7uMG5rwi_iWNvBO78Y-25" value="forgCity" style="rounded=0;whiteSpace=wrap;html=1;" vertex="1" parent="1">
          <mxGeometry x="850" y="70" width="70" height="30" as="geometry" />
        </mxCell>
        <mxCell id="he7uMG5rwi_iWNvBO78Y-26" value="forgZip" style="rounded=0;whiteSpace=wrap;html=1;" vertex="1" parent="1">
          <mxGeometry x="920" y="70" width="70" height="30" as="geometry" />
        </mxCell>
        <mxCell id="he7uMG5rwi_iWNvBO78Y-28" value="PRESCRIPTION" style="rounded=0;whiteSpace=wrap;html=1;fillColor=#dae8fc;strokeColor=#6c8ebf;" vertex="1" parent="1">
          <mxGeometry x="240" y="323" width="100" height="30" as="geometry" />
        </mxCell>
        <mxCell id="he7uMG5rwi_iWNvBO78Y-29" value="" style="rounded=0;whiteSpace=wrap;html=1;" vertex="1" parent="1">
          <mxGeometry x="240" y="353" width="560" height="30" as="geometry" />
        </mxCell>
        <mxCell id="he7uMG5rwi_iWNvBO78Y-30" value="&lt;u&gt;fraudId&lt;/u&gt;" style="rounded=0;whiteSpace=wrap;html=1;" vertex="1" parent="1">
          <mxGeometry x="240" y="353" width="70" height="30" as="geometry" />
        </mxCell>
        <mxCell id="he7uMG5rwi_iWNvBO78Y-31" value="date" style="rounded=0;whiteSpace=wrap;html=1;" vertex="1" parent="1">
          <mxGeometry x="310" y="353" width="70" height="30" as="geometry" />
        </mxCell>
        <mxCell id="he7uMG5rwi_iWNvBO78Y-32" value="patName" style="rounded=0;whiteSpace=wrap;html=1;" vertex="1" parent="1">
          <mxGeometry x="380" y="353" width="70" height="30" as="geometry" />
        </mxCell>
        <mxCell id="he7uMG5rwi_iWNvBO78Y-33" value="docSign" style="rounded=0;whiteSpace=wrap;html=1;" vertex="1" parent="1">
          <mxGeometry x="450" y="353" width="70" height="30" as="geometry" />
        </mxCell>
        <mxCell id="he7uMG5rwi_iWNvBO78Y-34" value="qtyDrug" style="rounded=0;whiteSpace=wrap;html=1;" vertex="1" parent="1">
          <mxGeometry x="520" y="353" width="70" height="30" as="geometry" />
        </mxCell>
        <mxCell id="he7uMG5rwi_iWNvBO78Y-74" style="edgeStyle=orthogonalEdgeStyle;rounded=0;orthogonalLoop=1;jettySize=auto;html=1;exitX=0.5;exitY=0;exitDx=0;exitDy=0;entryX=0.5;entryY=1;entryDx=0;entryDy=0;" edge="1" parent="1" source="he7uMG5rwi_iWNvBO78Y-35" target="he7uMG5rwi_iWNvBO78Y-3">
          <mxGeometry relative="1" as="geometry">
            <Array as="points">
              <mxPoint x="625" y="320" />
              <mxPoint x="425" y="320" />
              <mxPoint x="425" y="140" />
              <mxPoint x="75" y="140" />
            </Array>
          </mxGeometry>
        </mxCell>
        <mxCell id="he7uMG5rwi_iWNvBO78Y-35" value="&lt;u&gt;storeNum&lt;/u&gt;" style="rounded=0;whiteSpace=wrap;html=1;fillColor=#e1d5e7;strokeColor=#9673a6;" vertex="1" parent="1">
          <mxGeometry x="590" y="353" width="70" height="30" as="geometry" />
        </mxCell>
        <mxCell id="he7uMG5rwi_iWNvBO78Y-37" value="DRUG" style="rounded=0;whiteSpace=wrap;html=1;fillColor=#dae8fc;strokeColor=#6c8ebf;" vertex="1" parent="1">
          <mxGeometry x="330" y="470" width="70" height="30" as="geometry" />
        </mxCell>
        <mxCell id="he7uMG5rwi_iWNvBO78Y-38" value="" style="rounded=0;whiteSpace=wrap;html=1;" vertex="1" parent="1">
          <mxGeometry x="330" y="500" width="210" height="30" as="geometry" />
        </mxCell>
        <mxCell id="he7uMG5rwi_iWNvBO78Y-39" value="&lt;u&gt;drugName&lt;/u&gt;" style="rounded=0;whiteSpace=wrap;html=1;" vertex="1" parent="1">
          <mxGeometry x="330" y="500" width="70" height="30" as="geometry" />
        </mxCell>
        <mxCell id="he7uMG5rwi_iWNvBO78Y-40" value="drugMfr" style="rounded=0;whiteSpace=wrap;html=1;" vertex="1" parent="1">
          <mxGeometry x="400" y="500" width="70" height="30" as="geometry" />
        </mxCell>
        <mxCell id="he7uMG5rwi_iWNvBO78Y-41" value="drugStr" style="rounded=0;whiteSpace=wrap;html=1;" vertex="1" parent="1">
          <mxGeometry x="470" y="500" width="70" height="30" as="geometry" />
        </mxCell>
        <mxCell id="he7uMG5rwi_iWNvBO78Y-46" value="DOCTOR" style="rounded=0;whiteSpace=wrap;html=1;fillColor=#dae8fc;strokeColor=#6c8ebf;" vertex="1" parent="1">
          <mxGeometry x="240" y="680" width="70" height="30" as="geometry" />
        </mxCell>
        <mxCell id="he7uMG5rwi_iWNvBO78Y-47" value="" style="rounded=0;whiteSpace=wrap;html=1;" vertex="1" parent="1">
          <mxGeometry x="240" y="710" width="420" height="30" as="geometry" />
        </mxCell>
        <mxCell id="he7uMG5rwi_iWNvBO78Y-48" value="&lt;u&gt;deaNum&lt;/u&gt;" style="rounded=0;whiteSpace=wrap;html=1;" vertex="1" parent="1">
          <mxGeometry x="240" y="710" width="70" height="30" as="geometry" />
        </mxCell>
        <mxCell id="he7uMG5rwi_iWNvBO78Y-49" value="deaPhone" style="rounded=0;whiteSpace=wrap;html=1;" vertex="1" parent="1">
          <mxGeometry x="310" y="710" width="70" height="30" as="geometry" />
        </mxCell>
        <mxCell id="he7uMG5rwi_iWNvBO78Y-50" value="deaName" style="rounded=0;whiteSpace=wrap;html=1;" vertex="1" parent="1">
          <mxGeometry x="380" y="710" width="70" height="30" as="geometry" />
        </mxCell>
        <mxCell id="he7uMG5rwi_iWNvBO78Y-51" value="deaAddress" style="rounded=0;whiteSpace=wrap;html=1;" vertex="1" parent="1">
          <mxGeometry x="450" y="710" width="70" height="30" as="geometry" />
        </mxCell>
        <mxCell id="he7uMG5rwi_iWNvBO78Y-52" value="deaCity" style="rounded=0;whiteSpace=wrap;html=1;" vertex="1" parent="1">
          <mxGeometry x="520" y="710" width="70" height="30" as="geometry" />
        </mxCell>
        <mxCell id="he7uMG5rwi_iWNvBO78Y-53" value="deaZip" style="rounded=0;whiteSpace=wrap;html=1;" vertex="1" parent="1">
          <mxGeometry x="590" y="710" width="70" height="30" as="geometry" />
        </mxCell>
        <mxCell id="he7uMG5rwi_iWNvBO78Y-55" value="USER" style="rounded=0;whiteSpace=wrap;html=1;fillColor=#dae8fc;strokeColor=#6c8ebf;" vertex="1" parent="1">
          <mxGeometry x="570" y="180" width="70" height="30" as="geometry" />
        </mxCell>
        <mxCell id="he7uMG5rwi_iWNvBO78Y-56" value="" style="rounded=0;whiteSpace=wrap;html=1;" vertex="1" parent="1">
          <mxGeometry x="570" y="210" width="510" height="30" as="geometry" />
        </mxCell>
        <mxCell id="he7uMG5rwi_iWNvBO78Y-57" value="&lt;u&gt;userID&lt;/u&gt;" style="rounded=0;whiteSpace=wrap;html=1;" vertex="1" parent="1">
          <mxGeometry x="570" y="210" width="70" height="30" as="geometry" />
        </mxCell>
        <mxCell id="he7uMG5rwi_iWNvBO78Y-58" value="userBirth" style="rounded=0;whiteSpace=wrap;html=1;" vertex="1" parent="1">
          <mxGeometry x="640" y="210" width="70" height="30" as="geometry" />
        </mxCell>
        <mxCell id="he7uMG5rwi_iWNvBO78Y-59" value="userPickTime" style="rounded=0;whiteSpace=wrap;html=1;" vertex="1" parent="1">
          <mxGeometry x="710" y="210" width="80" height="30" as="geometry" />
        </mxCell>
        <mxCell id="he7uMG5rwi_iWNvBO78Y-60" value="userPickDate" style="rounded=0;whiteSpace=wrap;html=1;" vertex="1" parent="1">
          <mxGeometry x="790" y="210" width="80" height="30" as="geometry" />
        </mxCell>
        <mxCell id="he7uMG5rwi_iWNvBO78Y-61" value="userName" style="rounded=0;whiteSpace=wrap;html=1;" vertex="1" parent="1">
          <mxGeometry x="870" y="210" width="70" height="30" as="geometry" />
        </mxCell>
        <mxCell id="he7uMG5rwi_iWNvBO78Y-62" value="userPhone" style="rounded=0;whiteSpace=wrap;html=1;" vertex="1" parent="1">
          <mxGeometry x="940" y="210" width="70" height="30" as="geometry" />
        </mxCell>
        <mxCell id="he7uMG5rwi_iWNvBO78Y-63" value="userCity" style="rounded=0;whiteSpace=wrap;html=1;" vertex="1" parent="1">
          <mxGeometry x="1010" y="210" width="70" height="30" as="geometry" />
        </mxCell>
        <mxCell id="he7uMG5rwi_iWNvBO78Y-64" value="prescribes" style="rounded=0;whiteSpace=wrap;html=1;fillColor=#ffe6cc;strokeColor=#d79b00;" vertex="1" parent="1">
          <mxGeometry x="40" y="323" width="70" height="30" as="geometry" />
        </mxCell>
        <mxCell id="he7uMG5rwi_iWNvBO78Y-65" value="" style="rounded=0;whiteSpace=wrap;html=1;" vertex="1" parent="1">
          <mxGeometry x="40" y="353" width="140" height="30" as="geometry" />
        </mxCell>
        <mxCell id="he7uMG5rwi_iWNvBO78Y-107" style="edgeStyle=orthogonalEdgeStyle;rounded=0;orthogonalLoop=1;jettySize=auto;html=1;exitX=0.5;exitY=1;exitDx=0;exitDy=0;entryX=0.5;entryY=1;entryDx=0;entryDy=0;" edge="1" parent="1" source="he7uMG5rwi_iWNvBO78Y-66" target="he7uMG5rwi_iWNvBO78Y-48">
          <mxGeometry relative="1" as="geometry">
            <Array as="points">
              <mxPoint x="75" y="790" />
              <mxPoint x="275" y="790" />
            </Array>
          </mxGeometry>
        </mxCell>
        <mxCell id="he7uMG5rwi_iWNvBO78Y-66" value="&lt;u&gt;deaNum&lt;/u&gt;" style="rounded=0;whiteSpace=wrap;html=1;fillColor=#e1d5e7;strokeColor=#9673a6;" vertex="1" parent="1">
          <mxGeometry x="40" y="353" width="70" height="30" as="geometry" />
        </mxCell>
        <mxCell id="he7uMG5rwi_iWNvBO78Y-108" style="edgeStyle=orthogonalEdgeStyle;rounded=0;orthogonalLoop=1;jettySize=auto;html=1;exitX=0.5;exitY=1;exitDx=0;exitDy=0;entryX=0.5;entryY=1;entryDx=0;entryDy=0;" edge="1" parent="1" source="he7uMG5rwi_iWNvBO78Y-67" target="he7uMG5rwi_iWNvBO78Y-30">
          <mxGeometry relative="1" as="geometry">
            <Array as="points">
              <mxPoint x="145" y="420" />
              <mxPoint x="275" y="420" />
            </Array>
          </mxGeometry>
        </mxCell>
        <mxCell id="he7uMG5rwi_iWNvBO78Y-67" value="&lt;u&gt;fraudId&lt;/u&gt;" style="rounded=0;whiteSpace=wrap;html=1;fillColor=#e1d5e7;strokeColor=#9673a6;" vertex="1" parent="1">
          <mxGeometry x="110" y="353" width="70" height="30" as="geometry" />
        </mxCell>
        <mxCell id="he7uMG5rwi_iWNvBO78Y-103" style="edgeStyle=orthogonalEdgeStyle;rounded=0;orthogonalLoop=1;jettySize=auto;html=1;exitX=0.5;exitY=0;exitDx=0;exitDy=0;entryX=0.5;entryY=1;entryDx=0;entryDy=0;" edge="1" parent="1" source="he7uMG5rwi_iWNvBO78Y-76" target="he7uMG5rwi_iWNvBO78Y-21">
          <mxGeometry relative="1" as="geometry">
            <Array as="points">
              <mxPoint x="695" y="310" />
              <mxPoint x="495" y="310" />
              <mxPoint x="495" y="140" />
              <mxPoint x="605" y="140" />
            </Array>
          </mxGeometry>
        </mxCell>
        <mxCell id="he7uMG5rwi_iWNvBO78Y-76" value="&lt;u&gt;forgId&lt;/u&gt;" style="rounded=0;whiteSpace=wrap;html=1;fillColor=#e1d5e7;strokeColor=#9673a6;" vertex="1" parent="1">
          <mxGeometry x="660" y="353" width="70" height="30" as="geometry" />
        </mxCell>
        <mxCell id="he7uMG5rwi_iWNvBO78Y-105" style="edgeStyle=orthogonalEdgeStyle;rounded=0;orthogonalLoop=1;jettySize=auto;html=1;exitX=0.5;exitY=0;exitDx=0;exitDy=0;entryX=0.5;entryY=1;entryDx=0;entryDy=0;" edge="1" parent="1" source="he7uMG5rwi_iWNvBO78Y-104" target="he7uMG5rwi_iWNvBO78Y-57">
          <mxGeometry relative="1" as="geometry">
            <Array as="points">
              <mxPoint x="765" y="270" />
              <mxPoint x="605" y="270" />
            </Array>
          </mxGeometry>
        </mxCell>
        <mxCell id="he7uMG5rwi_iWNvBO78Y-104" value="&lt;u&gt;userID&lt;/u&gt;" style="rounded=0;whiteSpace=wrap;html=1;fillColor=#e1d5e7;strokeColor=#9673a6;" vertex="1" parent="1">
          <mxGeometry x="730" y="353" width="70" height="30" as="geometry" />
        </mxCell>
        <mxCell id="he7uMG5rwi_iWNvBO78Y-109" value="contains" style="rounded=0;whiteSpace=wrap;html=1;fillColor=#ffe6cc;strokeColor=#d79b00;" vertex="1" parent="1">
          <mxGeometry x="120" y="540" width="70" height="30" as="geometry" />
        </mxCell>
        <mxCell id="he7uMG5rwi_iWNvBO78Y-110" value="" style="rounded=0;whiteSpace=wrap;html=1;" vertex="1" parent="1">
          <mxGeometry x="120" y="570" width="140" height="30" as="geometry" />
        </mxCell>
        <mxCell id="he7uMG5rwi_iWNvBO78Y-114" style="edgeStyle=orthogonalEdgeStyle;rounded=0;orthogonalLoop=1;jettySize=auto;html=1;exitX=0.5;exitY=1;exitDx=0;exitDy=0;entryX=0.5;entryY=1;entryDx=0;entryDy=0;" edge="1" parent="1" source="he7uMG5rwi_iWNvBO78Y-111" target="he7uMG5rwi_iWNvBO78Y-39">
          <mxGeometry relative="1" as="geometry" />
        </mxCell>
        <mxCell id="he7uMG5rwi_iWNvBO78Y-111" value="&lt;u&gt;drugName&lt;/u&gt;" style="rounded=0;whiteSpace=wrap;html=1;fillColor=#e1d5e7;strokeColor=#9673a6;" vertex="1" parent="1">
          <mxGeometry x="120" y="570" width="70" height="30" as="geometry" />
        </mxCell>
        <mxCell id="he7uMG5rwi_iWNvBO78Y-113" style="edgeStyle=orthogonalEdgeStyle;rounded=0;orthogonalLoop=1;jettySize=auto;html=1;exitX=0.5;exitY=0;exitDx=0;exitDy=0;entryX=0.5;entryY=1;entryDx=0;entryDy=0;" edge="1" parent="1" source="he7uMG5rwi_iWNvBO78Y-112" target="he7uMG5rwi_iWNvBO78Y-30">
          <mxGeometry relative="1" as="geometry" />
        </mxCell>
        <mxCell id="he7uMG5rwi_iWNvBO78Y-112" value="&lt;u&gt;fraudId&lt;/u&gt;" style="rounded=0;whiteSpace=wrap;html=1;fillColor=#e1d5e7;strokeColor=#9673a6;" vertex="1" parent="1">
          <mxGeometry x="190" y="570" width="70" height="30" as="geometry" />
        </mxCell>
      </root>
    </mxGraphModel>
  </diagram>
</mxfile>
